   <svg class="mt-4 mb-3" xmlns="http://www.w3.org/2000/svg" width="56.382" height="70.111" viewBox="0 0 56.382 70.111">
                  <g id="embrace-mother-svgrepo-com" transform="translate(-50.128)">
                    <g id="Group_72" data-name="Group 72" transform="translate(57.959 36.282)">
                      <g id="Group_71" data-name="Group 71">
                        <path id="Path_117" data-name="Path 117" d="M107.756,265.187a1.144,1.144,0,1,0,1.836,1.07A1.155,1.155,0,0,0,107.756,265.187Z" transform="translate(-107.318 -264.952)" fill="#b82e73"/>
                      </g>
                    </g>
                    <g id="Group_74" data-name="Group 74" transform="translate(67.869 36.282)">
                      <g id="Group_73" data-name="Group 73">
                        <path id="Path_118" data-name="Path 118" d="M180.045,265.252a1.144,1.144,0,1,0,1.909,1.008A1.153,1.153,0,0,0,180.045,265.252Z" transform="translate(-179.686 -264.956)" fill="#b82e73"/>
                      </g>
                    </g>
                    <g id="Group_76" data-name="Group 76" transform="translate(60.319 41.031)">
                      <g id="Group_75" data-name="Group 75" transform="translate(0)">
                        <path id="Path_119" data-name="Path 119" d="M131.685,299.967a1.144,1.144,0,0,0-1.618,0,2.518,2.518,0,0,1-3.56,0,1.144,1.144,0,0,0-1.618,1.618,4.806,4.806,0,0,0,6.8,0A1.144,1.144,0,0,0,131.685,299.967Z" transform="translate(-124.552 -299.632)" fill="#b82e73"/>
                      </g>
                    </g>
                    <g id="Group_78" data-name="Group 78" transform="translate(50.128)">
                      <g id="Group_77" data-name="Group 77" transform="translate(0)">
                        <path id="Path_120" data-name="Path 120" d="M104.9,15.587A22.921,22.921,0,0,0,98.7,4.554a1.144,1.144,0,1,0-1.551,1.683c5.85,5.39,7.077,15.441,7.077,22.923,0,7.343-1.766,12.568-5.249,15.529a10.721,10.721,0,0,1-5.061,2.378,17.91,17.91,0,0,0,2.805-10.435,51.929,51.929,0,0,0-.627-6.507,18.65,18.65,0,0,0-2.861-7.74,10.844,10.844,0,0,0-6.629-4.37C79.586,16.4,75.2,10.7,73.908,8.814a8.617,8.617,0,0,1,8.355-6.525H86.59a10,10,0,0,1,1.126.063l.059.007.025,0,.05,0a16.175,16.175,0,0,1,6.714,1.982A1.144,1.144,0,0,0,95.7,2.359,18.446,18.446,0,0,0,88.033.084l-.042,0A12.283,12.283,0,0,0,86.59,0H82.263A10.906,10.906,0,0,0,71.571,8.779l-.008.035,0,.007a10.876,10.876,0,0,0-.2,2.079V22.157a13.841,13.841,0,0,0,.39,3.268,13.725,13.725,0,0,0-15.38-.021,1.144,1.144,0,1,0,1.281,1.9,11.366,11.366,0,0,1,5.18-1.889,6.943,6.943,0,0,1-2.031,4.22c-2.14,2.09-5.44,2.723-7.377,2.914a11.422,11.422,0,0,1,1.945-3.214,1.144,1.144,0,0,0-1.735-1.493,13.734,13.734,0,0,0,5.181,21.649,11.565,11.565,0,0,0-6.314,10.3v1.8a9.267,9.267,0,0,0-.933.594,3.793,3.793,0,0,0,1.694,6.711l.063.011A76.158,76.158,0,0,0,66.3,70.111c9.389,0,17.032-2.2,22.811-6.594a26,26,0,0,0,9.917-16.035,12.812,12.812,0,0,0,1.422-1.049c4.018-3.416,6.055-9.227,6.055-17.273A51.635,51.635,0,0,0,104.9,15.587ZM94.431,36.729a15.774,15.774,0,0,1-.068,2.28c-.89.628-2.605.937-4.9.87a27.8,27.8,0,0,1-3.095-.276V35.966a13.808,13.808,0,0,0,7.78-3.211C94.274,33.953,94.369,35.269,94.431,36.729Zm-20.779-24.5a26.177,26.177,0,0,0,7.4,6.1v6.462a1.144,1.144,0,0,0,1.144,1.144h2.8a1.144,1.144,0,1,0,0-2.289H83.337v-4.26a19.589,19.589,0,0,0,2.748.856c4.189.967,6.564,3.978,7.653,9.733a11.565,11.565,0,0,1-20.086-7.821V12.232ZM77.411,33.6a13.77,13.77,0,0,0,6.663,2.368v1.619c-4.536,3.72-5.65,7.26-6.727,10.687a18.652,18.652,0,0,1-2.962,6.364,11.621,11.621,0,0,0-5.106-5.143A13.737,13.737,0,0,0,77.411,33.6Zm-2.732-1.049c-1.931-.188-5.221-.817-7.37-2.91a6.942,6.942,0,0,1-2.037-4.226A11.471,11.471,0,0,1,74.679,32.549ZM52.608,36.792a11.445,11.445,0,0,1,.16-1.9c1.994-.1,6.6-.668,9.626-3.617a9,9,0,0,0,1.659-2.193,9,9,0,0,0,1.659,2.193c3.028,2.949,7.632,3.514,9.626,3.617a11.444,11.444,0,1,1-22.73,1.9ZM64.053,50.526a9.212,9.212,0,0,1,5.74,2,8.16,8.16,0,0,1-11.485,0A9.185,9.185,0,0,1,64.053,50.526ZM58.5,67.343q-2.328-.272-4.778-.694l-.061-.011a1.5,1.5,0,0,1-.667-2.662l.123-.1a1.709,1.709,0,0,1,1.6-.284,19.336,19.336,0,0,0,3.958.9Zm-3.073-5.922a4,4,0,0,0-.632-.15V59.784A9.181,9.181,0,0,1,56.7,54.155a10.448,10.448,0,0,0,14.7,0,9.207,9.207,0,0,1,1.879,4.881,61.813,61.813,0,0,1-13.487,3.222A13.674,13.674,0,0,1,55.426,61.422Zm32.269.3c-6.447,4.878-15.482,6.836-26.917,5.852l.191-3.152a65.241,65.241,0,0,0,10.3-2.273c8.036-2.506,13.143-6.083,15.178-10.632a1.144,1.144,0,1,0-2.089-.935c-1.5,3.355-4.988,5.8-8.879,7.549-.05-.347-.116-.688-.2-1.024a19.253,19.253,0,0,0,4.246-8.15c.884-2.812,1.728-5.493,4.548-8.3A1.144,1.144,0,0,0,85,41.7a27.989,27.989,0,0,0,4.985.484,14.2,14.2,0,0,0,3.857-.464,15.676,15.676,0,0,1-3.178,5.9,1.144,1.144,0,0,0,.746,1.883,6.866,6.866,0,0,0,.7.029,13.159,13.159,0,0,0,4.3-.762A24.189,24.189,0,0,1,87.695,61.723Z" transform="translate(-50.128)" fill="#b82e73"/>
                      </g>
                    </g>
                    <g id="Group_80" data-name="Group 80" transform="translate(75.687 19.024)">
                      <g id="Group_79" data-name="Group 79">
                        <path id="Path_121" data-name="Path 121" d="M239.927,139.1l-1.9-.173a1.144,1.144,0,0,0-.207,2.279l1.9.173c.035,0,.07,0,.105,0a1.144,1.144,0,0,0,.1-2.284Z" transform="translate(-236.777 -138.926)" fill="#b82e73"/>
                      </g>
                    </g>
                    <g id="Group_82" data-name="Group 82" transform="translate(80.134 28.15)">
                      <g id="Group_81" data-name="Group 81">
                        <path id="Path_122" data-name="Path 122" d="M276.383,205.907a1.144,1.144,0,0,0-1.618,0,2.518,2.518,0,0,1-3.56,0,1.144,1.144,0,0,0-1.618,1.618,4.806,4.806,0,0,0,6.8,0A1.144,1.144,0,0,0,276.383,205.907Z" transform="translate(-269.25 -205.572)" fill="#b82e73"/>
                      </g>
                    </g>
                  </g>
                </svg>

