<svg xmlns="http://www.w3.org/2000/svg" width="106" height="106" viewBox="0 0 106 106">
  <g id="Group_5" data-name="Group 5" transform="translate(-1096 -17)">
    <g id="Ellipse_3" data-name="Ellipse 3" transform="translate(1096 17)" fill="#fff" stroke="#000" stroke-width="1.2">
      <circle cx="53" cy="53" r="53" stroke="none"/>
      <circle cx="53" cy="53" r="52.4" fill="none"/>
    </g>
    <path id="Path_28" data-name="Path 28" d="M356.364,392.739l2.472-1.767,3.109-2,5.33-2.6,3.62-.862,5.254-1.48,2.524.182,2.125.55,1.026,1.266.909,1.85.314,2.7.031,2.853-1.035,1.16-1.286.251-1-.972-1.38-2.54-1.568-.063-3.589,2.925-2.579,3.876-1.6,2.052-1.11.615-.69-.345.345-1.317,1.662-3.543-.847.564-1.211,1.163-1.015,2-.784,1-1,.376-.344-.421-.283-.425-.031-1.6-1.286,1.5-.408.314-.909.063-.544-.966.156-.826,2.834-5.67.5-1.285-1.4-.025-2.9,2.188-2.414,1.16-.548-.337-.549-.7Z" transform="translate(786.181 -300.888)" fill="#ffecd8" fill-rule="evenodd"/>
    <path id="Path_4" data-name="Path 4" d="M344.562,535.315c15.9-13.437,23.7-3.109,35.5-5.844-16.11,9.592-20.906-8.08-33.518,6.521A2.278,2.278,0,0,1,344.562,535.315Z" transform="translate(795.792 -419.252)" fill="#5fae32" fill-rule="evenodd"/>
    <path id="Path_5" data-name="Path 5" d="M459.7,457.532c4.274-.634,7.4-8.8,14.75-13.361-2.206,5.219-5.026,10-10.063,13.227,6.3-.4,12.995-2.627,19.492-3.94C478.467,458.563,466.189,462.6,459.7,457.532Z" transform="translate(701.288 -350.253)" fill="#5fae32" fill-rule="evenodd"/>
    <path id="Path_6" data-name="Path 6" d="M515.5,426.865c4.054-5.039,5.7-12.01,10.706-16.3-.629,5.425-2.444,10.382-7.055,14.233,5.293-3.339,12.435-4.849,17.364-9.336C532.821,423.1,526.314,427.48,515.5,426.865Z" transform="translate(655.479 -322.668)" fill="#5fae32" fill-rule="evenodd"/>
    <path id="Path_7" data-name="Path 7" d="M572.6,377.373c-3.766,4.679-2.468,11.016-4.906,15.93,12.209-3.915,10.785-8.359,14.617-12.507l-11.935,9A21.653,21.653,0,0,0,572.6,377.373Z" transform="translate(612.641 -295.423)" fill="#5fae32" fill-rule="evenodd"/>
    <path id="Path_8" data-name="Path 8" d="M603.818,340.829c-4.456,4.108-1,9.5-2.5,14.375,6.643-3.267,9.75-6.852,9.123-11.923-1.329,4.385-3.957,4.412-6.568,8.1C604.725,347.776,603.272,345.114,603.818,340.829Z" transform="translate(585.042 -265.427)" fill="#5fae32" fill-rule="evenodd"/>
    <path id="Path_9" data-name="Path 9" d="M625.2,317.479c-1.72,4.711-3.529,8.91-2.226,11.1C624.751,327.3,628.357,321.71,625.2,317.479Z" transform="translate(567.629 -246.261)" fill="#5fae32" fill-rule="evenodd"/>
    <path id="Path_10" data-name="Path 10" d="M289.54,536.349c-15.9-13.437-23.7-3.109-35.5-5.844,16.11,9.592,20.906-8.08,33.518,6.522A2.279,2.279,0,0,0,289.54,536.349Z" transform="translate(870.092 -420.101)" fill="#5fae32" fill-rule="evenodd"/>
    <path id="Path_11" data-name="Path 11" d="M226.255,458.566c-4.274-.634-7.4-8.8-14.75-13.361,2.207,5.219,5.026,10,10.063,13.226-6.3-.4-12.995-2.626-19.492-3.94C207.483,459.6,219.761,463.63,226.255,458.566Z" transform="translate(912.748 -351.101)" fill="#5fae32" fill-rule="evenodd"/>
    <path id="Path_12" data-name="Path 12" d="M184.938,427.9c-4.055-5.039-5.7-12.01-10.706-16.3.629,5.425,2.444,10.382,7.055,14.233-5.293-3.339-12.435-4.848-17.364-9.336C167.622,424.135,174.128,428.514,184.938,427.9Z" transform="translate(944.065 -323.517)" fill="#5fae32" fill-rule="evenodd"/>
    <path id="Path_13" data-name="Path 13" d="M157.155,378.406c3.766,4.679,2.468,11.016,4.906,15.93-12.209-3.915-10.785-8.359-14.617-12.507l11.935,9A21.653,21.653,0,0,1,157.155,378.406Z" transform="translate(957.593 -296.271)" fill="#5fae32" fill-rule="evenodd"/>
    <path id="Path_14" data-name="Path 14" d="M150.744,341.863c4.456,4.108,1,9.5,2.5,14.375-6.643-3.267-9.75-6.852-9.123-11.923,1.329,4.385,3.957,4.412,6.568,8.1C149.837,348.81,151.29,346.148,150.744,341.863Z" transform="translate(960.382 -266.276)" fill="#5fae32" fill-rule="evenodd"/>
    <path id="Path_15" data-name="Path 15" d="M153.558,318.513c1.72,4.711,3.529,8.91,2.225,11.1C154.007,328.336,150.4,322.744,153.558,318.513Z" transform="translate(953.599 -247.109)" fill="#5fae32" fill-rule="evenodd"/>
    <path id="Path_29" data-name="Path 29" d="M162.457,85.06a.643.643,0,1,1,.486-.011.612.612,0,0,1-.486.011Zm81.813,10.957a3.11,3.11,0,0,0,.638-.2,1.394,1.394,0,0,0,.477-.336,1.238,1.238,0,0,0,.274-.509,1.853,1.853,0,0,0,.03-.726,3.908,3.908,0,0,0-.1-.444,4.257,4.257,0,0,0-.207-.6l1.031-.131a5.53,5.53,0,0,1,.222.536,3.287,3.287,0,0,1,.172.714,2.592,2.592,0,0,1-.092,1.2,2.132,2.132,0,0,1-.542.85,2.606,2.606,0,0,1-.875.54,4.652,4.652,0,0,1-1.081.268l-.827.1a36.906,36.906,0,0,1-.589-4.951,1.205,1.205,0,0,1,.274-.562,1.27,1.27,0,0,1-.607-.368,1.748,1.748,0,0,1-.384-.729,2.572,2.572,0,0,1-.095-.727,2.855,2.855,0,0,1,.145-.833.93.93,0,0,1-.431-.371,2.431,2.431,0,0,1-.2-.494l-.087-.308a.381.381,0,0,1-.086-.136l-.529-1.342a2.089,2.089,0,0,1-.121-.516,1.543,1.543,0,0,1,.042-.589,6.142,6.142,0,0,1-.516-.649,14.015,14.015,0,0,1-.869-1.812,1.013,1.013,0,0,1-.007-.29.729.729,0,0,1,.1-.291.891.891,0,0,1-.343-.1,1.184,1.184,0,0,1-.281-.21,1.935,1.935,0,0,1-.227-.278q-.1-.152-.193-.308c-.2-.355-.629-1.021-.8-1.406a1.347,1.347,0,0,1-.106-.373.986.986,0,0,1,.023-.371.941.941,0,0,1,.2-.366q-.112-.109-.218-.233a2.146,2.146,0,0,1-.417-.733,1.638,1.638,0,0,1-.095-.6,1.485,1.485,0,0,1,.177-.645,1.625,1.625,0,0,1,.591-.6,1.812,1.812,0,0,1,.8-.3,1.654,1.654,0,0,1,.709.077,1.729,1.729,0,0,1,.589.346,2.442,2.442,0,0,1,.434.5l.822,1.282L238.84,79.44a.522.522,0,0,0-.209.2,5.127,5.127,0,0,0,.561,1.1.717.717,0,0,0,.294.322q.142.058.429-.107l1.747-1,.581,1.009-1.662.956a.582.582,0,0,0-.325.388,12.511,12.511,0,0,0,.865,2l.672-1.228a1.942,1.942,0,0,1,.257-.02q.139,0,.271,0a1.691,1.691,0,0,1,.247.028,1.433,1.433,0,0,1,.193.049,2.111,2.111,0,0,1,.692.473,2.215,2.215,0,0,1,.486.757,2.16,2.16,0,0,1,.163.706,1.558,1.558,0,0,1-.077.574,1.126,1.126,0,0,1-.65.685,1.523,1.523,0,0,1-.727.061,2.235,2.235,0,0,1-.884-.311c.249.631.549,1.226.733,1.874q.029.1.245.205a1.663,1.663,0,0,0,.577.13,4.215,4.215,0,0,1,.931.178,2.446,2.446,0,0,1,.648.314,1.577,1.577,0,0,1,.409.405,1.609,1.609,0,0,1,.262,1.118,1.533,1.533,0,0,1-.219.607,1.762,1.762,0,0,1-.466.491,2.136,2.136,0,0,1-.681.324c-.04.011-.078.021-.113.027s-.07.015-.1.025a.629.629,0,0,0-.191.427,29.926,29.926,0,0,0,.477,3.806Zm-2.724-1.469a.642.642,0,1,0,.468.13.612.612,0,0,0-.468-.13Zm2.372-3.919a1.171,1.171,0,0,0,.25-.1.737.737,0,0,0,.2-.16.542.542,0,0,0,.115-.219.521.521,0,0,0-.01-.281.71.71,0,0,0-.373-.4,1.839,1.839,0,0,0-.961-.137,3.436,3.436,0,0,0-.095.469,1.107,1.107,0,0,0,.037.441.54.54,0,0,0,.306.374.777.777,0,0,0,.53.013Zm-.933-5.921a1.6,1.6,0,0,0-.265-.464,1.389,1.389,0,0,0-.279-.256q-.079.118-.164.267t-.168.307q-.082.158-.158.308a2.924,2.924,0,0,0-.123.275,1.147,1.147,0,0,0,.512.212.882.882,0,0,0,.448-.023.613.613,0,0,0,.123-.068.3.3,0,0,0,.1-.116.418.418,0,0,0,.034-.182.736.736,0,0,0-.06-.261Zm-6.231-3.124a.643.643,0,1,0,.482-.06.612.612,0,0,0-.482.06Zm.728,1.266a.642.642,0,1,0,.482-.06.611.611,0,0,0-.482.06Zm.926-5.836a1.049,1.049,0,0,0-.176.145.538.538,0,0,0-.126.2.559.559,0,0,0-.027.246.67.67,0,0,0,.114.294q.063.1.136.2a.947.947,0,0,0,.178.178l1.033-.662-.242-.377a.659.659,0,0,0-.414-.325.638.638,0,0,0-.476.108Zm2.429-2.2a.642.642,0,1,0,.479-.083.612.612,0,0,0-.479.083Zm.788,1.229a.643.643,0,1,0,.479-.083.612.612,0,0,0-.479.083Zm-2.933-5.216-4.835,4.188-.763-.88,4.835-4.188.763.88Zm-6.472.967-.679-.648,0,0a.647.647,0,0,0-.093-.1q-.325-.281-.326-.472a.718.718,0,0,1,.216-.441l1.255-1.449-.88-.763-1.32,1.524q-.217.25-.37.242a.716.716,0,0,1-.383-.207c-.127-.11-.541-.45-.655-.586a.593.593,0,0,1-.115-.209.527.527,0,0,1-.015-.242.659.659,0,0,1,.124-.275l.883-1.241-.949-.675-1.547,2.176a4.425,4.425,0,0,1-.355.445.9.9,0,0,1-.342.241.608.608,0,0,1-.4,0,2.057,2.057,0,0,1-.521-.272l-.633.891a4.235,4.235,0,0,0,.872.477,1.57,1.57,0,0,0,.765.1,1.527,1.527,0,0,0,.713-.3,3.4,3.4,0,0,0,.707-.745.7.7,0,0,0,.157.4,2,2,0,0,0,.143.155.645.645,0,0,0,.078.079l.555.481q.135.117.283.227a1.949,1.949,0,0,0,.305.188,1.187,1.187,0,0,0,.335.106.889.889,0,0,0,.358-.016.763.763,0,0,0,.061.545,1.494,1.494,0,0,0,.248.323.67.67,0,0,0,.07.077l1.589,1.515,4.414-4.63-.843-.8-3.7,3.884Zm-3.854-.1a.643.643,0,1,1-.151.462.612.612,0,0,1,.151-.462Zm.761-9.2-3.452,5.385-.98-.629,3.452-5.385.98.629Zm-5.511,2.21a1.178,1.178,0,0,0,.095-.254.736.736,0,0,0,.02-.256.544.544,0,0,0-.082-.233.521.521,0,0,0-.212-.184.71.71,0,0,0-.545,0,1.838,1.838,0,0,0-.755.61,3.4,3.4,0,0,0,.279.389,1.1,1.1,0,0,0,.348.274.54.54,0,0,0,.483.031.778.778,0,0,0,.37-.379Zm-2.921-.782a4.961,4.961,0,0,0-1.093-.511,4.257,4.257,0,0,0,.182-1.04,2.533,2.533,0,0,0-.136-.968,2.072,2.072,0,0,0-.53-.808,2.659,2.659,0,0,0-1.007-.573,3.344,3.344,0,0,0-.722-.159,5.428,5.428,0,0,0-.583-.037l-.333.984a3.55,3.55,0,0,1,.641.075,4.388,4.388,0,0,1,.44.111,1.453,1.453,0,0,1,.964.771,2.02,2.02,0,0,1,.007,1.279l-1.409-.477a3.316,3.316,0,0,0-1.011-.186,2.2,2.2,0,0,0-.892.162,1.989,1.989,0,0,0-.718.514,2.74,2.74,0,0,0-.63,1.905,1.952,1.952,0,0,0,.284.853,2.292,2.292,0,0,0,.641.662,3.687,3.687,0,0,0,.94.465,3.155,3.155,0,0,0,.348.089,3.707,3.707,0,0,0,.5.066,3.932,3.932,0,0,0,1.3-.137l-.157-.933a4.326,4.326,0,0,1-.989.015,3.494,3.494,0,0,1-.679-.145,1.483,1.483,0,0,1-.837-.628,1.139,1.139,0,0,1-.071-.993,1.2,1.2,0,0,1,.6-.724,1.307,1.307,0,0,1,1.03-.011,23.74,23.74,0,0,1,3.457,1.3,2.447,2.447,0,0,0,.495.193.93.93,0,0,0,.566-.063,2.856,2.856,0,0,0,.51.674,2.569,2.569,0,0,0,.6.426,1.478,1.478,0,0,0,1.283.129,1.925,1.925,0,0,0,.933-.957,2.134,2.134,0,0,0,.227-.719,1.761,1.761,0,0,0-.042-.676,1.535,1.535,0,0,0-.295-.574,1.608,1.608,0,0,0-1-.571,1.583,1.583,0,0,0-.575.023,2.447,2.447,0,0,0-.672.26,4.217,4.217,0,0,0-.765.56,1.674,1.674,0,0,1-.488.334.419.419,0,0,1-.317.039Zm-4.6.694a.642.642,0,1,1,.035.485.611.611,0,0,1-.035-.485Zm-3.523-8.77-1.124,6.3-1.147-.2,1.125-6.3,1.146.2Zm-4.37,4.777.677-5.323,1.155.147-.806,6.345-2.121-.269a.493.493,0,0,1-.059,0,1.5,1.5,0,0,1-.5-.1.763.763,0,0,1-.394-.382.89.89,0,0,1-.266.24,1.192,1.192,0,0,1-.326.131,4.118,4.118,0,0,1-1.965-.123.8.8,0,0,1-.44-.348,1.091,1.091,0,0,1-.245.284,1.206,1.206,0,0,1-.271.164,1.086,1.086,0,0,1-.281.08c-.095.013-.187.023-.276.03a2.333,2.333,0,0,1-.343,0,1.986,1.986,0,0,1-.355-.058,1.678,1.678,0,0,1-.324-.119.666.666,0,0,1-.241-.193,1.248,1.248,0,0,1-.529.427,2.233,2.233,0,0,1-.607.127,1.553,1.553,0,0,1-1.3-.369c-.311.473-1.667.807-2.2.93a2.188,2.188,0,0,1-.561.06,1.094,1.094,0,0,1-.478-.119,1.038,1.038,0,0,1-.373-.341,1.761,1.761,0,0,1-.245-.605l-1.134-4.915,1.135-.262,1.1,4.758c.157.68,1.386.128,1.656-.05a.26.26,0,0,0,.106-.138.629.629,0,0,0,.018-.239l-.13-1.706,1.161-.088.115,1.518a.638.638,0,0,0,.189.44.627.627,0,0,0,.488.129,1.113,1.113,0,0,0,.442-.114.341.341,0,0,0,.155-.362l-.13-1.706,1.161-.088.116,1.519a.68.68,0,0,0,.172.454.6.6,0,0,0,.469.117.819.819,0,0,0,.392-.115.393.393,0,0,0,.122-.382l-.158-2.072,1.161-.088.145,1.912a.684.684,0,0,0,.17.463,3.51,3.51,0,0,0,1.657.131q.123-.091.132-.422l.051-2.015,1.164.029-.049,1.916a.718.718,0,0,0,.113.478.74.74,0,0,0,.537.157.417.417,0,0,1,.122,0l1.022.13Zm-2.934-4.261a.643.643,0,1,0,.2-.443.612.612,0,0,0-.2.443ZM192.38,62.156a7.521,7.521,0,0,1-1.712.382.581.581,0,0,1-.337-.378l-.7-1.784-1.083.427.739,1.875a.539.539,0,0,1,.044.44,4.517,4.517,0,0,1-1.606.616.523.523,0,0,1-.177-.227l-1.221-2.384-1.356.694a2.436,2.436,0,0,0-.543.384,1.73,1.73,0,0,0-.4.553,1.657,1.657,0,0,0-.145.7,1.809,1.809,0,0,0,.224.821,1.624,1.624,0,0,0,.537.646,1.484,1.484,0,0,0,.625.238,1.64,1.64,0,0,0,.611-.036,2.382,2.382,0,0,0,.493-.177,2.344,2.344,0,0,0,.277-.167q.133-.094.252-.195a.943.943,0,0,0,.345.231.986.986,0,0,0,.367.059,1.349,1.349,0,0,0,.382-.07c.5-.164,1.038-.359,1.527-.552q.167-.066.333-.145a1.951,1.951,0,0,0,.308-.184,1.19,1.19,0,0,0,.249-.247.886.886,0,0,0,.151-.325.727.727,0,0,0,.273.143,1.014,1.014,0,0,0,.288.035,1.246,1.246,0,0,0,.283-.039c.8-.2,1.586-.436,2.377-.661l-.974-3.43-1.12.318.693,2.439Zm.562-3.726-1.965.558-.2-.707.4-.113a.57.57,0,0,1-.12-.175,1.327,1.327,0,0,1-.082-.205,1.022,1.022,0,0,1-.037-.427.891.891,0,0,1,.125-.348.936.936,0,0,1,.243-.26,1.03,1.03,0,0,1,.328-.158,1.2,1.2,0,0,1,.3-.047q.144,0,.248,0l.188.663a1.893,1.893,0,0,0-.242.018,1.271,1.271,0,0,0-.146.027.379.379,0,0,0-.254.17.328.328,0,0,0-.019.243.345.345,0,0,0,.145.2.453.453,0,0,0,.359,0l.534-.152.2.707Zm-3.5,7.469a.643.643,0,1,1,.339.348.611.611,0,0,1-.339-.348Zm1.359-.536a.643.643,0,1,1,.339.348.61.61,0,0,1-.339-.348ZM185.088,63.7a.638.638,0,0,1-.061-.484.659.659,0,0,1,.364-.381l.4-.2.56,1.092a.94.94,0,0,1-.195.16q-.1.063-.207.116a.671.671,0,0,1-.3.085.561.561,0,0,1-.242-.051.539.539,0,0,1-.185-.145,1.048,1.048,0,0,1-.127-.19Zm-1.951-2.63a.643.643,0,1,1,.372.313.612.612,0,0,1-.372-.313Zm1.3-.666a.642.642,0,1,1,.372.313.612.612,0,0,1-.372-.313Zm-5.782,6.527,2.2-1.563.633.891-2.2,1.563-.633-.891Zm-2.443,4.652a3.115,3.115,0,0,0-.539-.4,1.392,1.392,0,0,0-.553-.184,1.241,1.241,0,0,0-.572.081,1.852,1.852,0,0,0-.6.407,3.926,3.926,0,0,0-.3.341,4.279,4.279,0,0,0-.361.524l-.717-.752a5.505,5.505,0,0,1,.3-.5,3.276,3.276,0,0,1,.473-.562,2.6,2.6,0,0,1,1.02-.638,2.134,2.134,0,0,1,1.006-.068,2.609,2.609,0,0,1,.954.384,4.654,4.654,0,0,1,.858.711l.575.6a47.026,47.026,0,0,0-3.3,3.368,2.2,2.2,0,0,1-.417.379,1.093,1.093,0,0,1-.457.185,1.037,1.037,0,0,1-.5-.056,1.758,1.758,0,0,1-.555-.344l-3.812-3.3.763-.88,3.69,3.2q.237.205.375.176c.012,0,2.526-2.531,2.68-2.677Zm-4.349-1.5a.642.642,0,1,0-.173-.454.611.611,0,0,0,.173.454Zm-3.894,4.754a.643.643,0,1,0-.256-.413.613.613,0,0,0,.256.413Zm3.371,2.309c-.152.214-.8,1.2-1.079,1.3a.582.582,0,0,1-.494-.109l-1.614-1.035-.629.98,1.7,1.088q.279.179.293.331a.718.718,0,0,1-.151.409,12.526,12.526,0,0,0-.737,1.283l-.231-.118a4.54,4.54,0,0,0-.874-.347,2.111,2.111,0,0,0-.788-.073,1.4,1.4,0,0,0-.673.263,1.816,1.816,0,0,0-.529.659,1.755,1.755,0,0,0-.207.768,1.732,1.732,0,0,0,.134.711,1.963,1.963,0,0,0,.4.6,2.153,2.153,0,0,0,.575.43,1.963,1.963,0,0,0,.743.23,1.343,1.343,0,0,0,.634-.1,1.49,1.49,0,0,0,.52-.378,2.775,2.775,0,0,0,.41-.6l.253-.494a.727.727,0,0,1,.226.257.811.811,0,0,1,.078.377,1.815,1.815,0,0,1-.1.53,4.737,4.737,0,0,1-.307.718l-.094.183.973.5.126-.247a3.741,3.741,0,0,0,.53-2.008,1.875,1.875,0,0,0-.9-1.361,14.246,14.246,0,0,1,.8-1.379q.1-.151.185-.313a1.932,1.932,0,0,0,.142-.329,1.179,1.179,0,0,0,.057-.346.887.887,0,0,0-.067-.352.732.732,0,0,0,.3-.044,1.016,1.016,0,0,0,.255-.14,1.238,1.238,0,0,0,.206-.2c.512-.614.973-1.334,1.44-1.989l-2.906-2.066-.675.949,2.066,1.469Zm-.1,4.737a.643.643,0,1,1,.479.083.612.612,0,0,1-.479-.083Zm.788-1.229a.643.643,0,1,1,.479.083.612.612,0,0,1-.479-.083Zm-5.167,2.559a1,1,0,0,1-.435-.389.532.532,0,0,1,.019-.529.5.5,0,0,1,.48-.318,1.658,1.658,0,0,1,.7.2l.478.245-.269.526a.726.726,0,0,1-.362.363.75.75,0,0,1-.606-.1Zm-.874,5.382c.945-.3,1.407-2.106,1.687-2.816l-3.317-1.308-.427,1.083,2.358.93a12.023,12.023,0,0,1-.9,1.578.629.629,0,0,1-.5.042l-1.868-.431-.262,1.135,2.025.467q.279.065.329.228a.82.82,0,0,1-.009.416,1.055,1.055,0,0,1-.07.2.423.423,0,0,1-.13.163.506.506,0,0,1-.214.089.791.791,0,0,1-.322-.019l-1.484-.342-.262,1.135,1.667.385a.339.339,0,0,1,.3.262,1.137,1.137,0,0,1-.022.455.564.564,0,0,1-.745.481L162.34,92.4l-.26,1.126,2.95.681a1.121,1.121,0,0,1,.823.516,1.571,1.571,0,0,1,.026,1.022,1.121,1.121,0,0,1-1.5.988l-1.2-.278-.258,1.117,1.2.276q2.261.522,2.807-1.844a4.128,4.128,0,0,0,.117-1.026,1.734,1.734,0,0,0-.83-1.483,3.52,3.52,0,0,0-1.09-.435,1.447,1.447,0,0,0,.29-.342,1.841,1.841,0,0,0,.253-.617,1.947,1.947,0,0,0,.041-.634,1.14,1.14,0,0,0-.237-.588,1.092,1.092,0,0,0,.419-.34,1.94,1.94,0,0,0,.313-.76,2.036,2.036,0,0,0,.043-.546A1.125,1.125,0,0,0,165.983,88.6Z" transform="translate(945.6 -31.06)" fill="#e50019" fill-rule="evenodd"/>
    <path id="Path_30" data-name="Path 30" d="M343.626,207.977l1.507-1.77,1.673-1.542,2.224-1.432,1.846-.487,1.461-1.513,2.128-2.128,2.013-1.437,2.405-.77,1.775.213,1.308,1.067.831,1.337.308,2.2-.763,2.131-1.11,2.34-.812,1.858-1.136,1.585-1.113,1.49-.508.673.423.348,2.1-1.162,2.434-.263,2.134-.213,1.452.956,1.808,1.591,1.5,1.306-.173,1.87-.249,1.156-.5.681-.851,1.087-2.328.65-2.062.484L360,221.45l-1.228.957-.517.323-1.183.039-1.88-.775-.543-1.047.155-1.086.407-2.055,1.144-3.237.944-1.813-1.313.378-.969.795-.64.717-.526,1.3-1.18.75-1.1.291-.737.058-.869.727-.987.638-1.285,1.892-.744,2.669-.371,1.51-2.2-7.824Z" transform="translate(796.56 -147.284)" fill="#ffecd8" fill-rule="evenodd"/>
    <path id="Path_31" data-name="Path 31" d="M364.1,257.028l-1.414,1.263-1.67,1.884-1.019,1.472-1.817.367-2.146.721-1.777,2.994-.849,3.46-.634,7.987-.823,5.354.327,1.062,1.081.5,3.142-3.278,3.8-1.47,3.88-1.837,1.417-.63,5.861-1.746,3.313.014,3.347,1.614,1.575-1.024,2.48-2.835-.039-2.087,1.7-3.872,2.038-5.263-.394-1.654-3.386-2.677L379.2,254.6l-3.058-1.744-3.74-1.5-2.6.039-2.555,1.354-1.343,1.874Z" transform="translate(789.73 -191.987)" fill="#ccedfc" fill-rule="evenodd"/>
    <path id="Path_32" data-name="Path 32" d="M420.171,281.1l.683-.825.152-2.5-1.417-1.689-2.325-1.816-1.962-.454-2.216-.127-1.326.327-1.725.872-1.289,1-1.053,2.634-.836,3.033-.4,1.834.527,1.489,2.016.8,1.344-.236,1.871-1.271s2.525-.817,2.743-.854,1.671-.4,1.671-.4l1.417-.309,1.017-.545Z" transform="translate(744.986 -210.313)" fill="#ffecd8" fill-rule="evenodd"/>
    <path id="Path_33" data-name="Path 33" d="M253.427,165.918l-.247-3.266,1.831-4.6,3.243-5.348,5.451-5.524,6.8-4.321,5.1-2.079,3.465-.3,3.42-.04,2.223,1.575,3.371,2.028,2.351,3.178.761,2.713.832,4.553-.387,1.584,3.183,5-.766.318-2.379-.524-3.3-.09-2.541,1.924.562-1.577,1.831-3.861.134-3.253-.678-2.339-2.061-1.467-2.188.8-2.381.647-2.23,2.391-2,1.8-1.733,1.364-3.429,1.526-1.98,1.783-.447,1.761L270.5,172.2l1.831,5.939-.356,5.443-.278,2.544-1.732-3.427-4.278-5.441-2.406-4.581-1.738-3.793-.1-1.485-1.633-1.435-1.984-.885-1.876.737Z" transform="translate(870.802 -100.941)" fill="#fae0ed" fill-rule="evenodd"/>
    <path id="Path_34" data-name="Path 34" d="M280.8,163.342c.106-.686.281-.615.664-1.027.82-.882,1.5-2.1,2.607-2.658,3.282-1.645,4.177-1.254,7.86.5a15.661,15.661,0,0,1,4.109,2.91,7.364,7.364,0,0,0,1.728,1.785l2.953,2.206c.381.278.715.453.655.995A34.52,34.52,0,0,1,299.5,173.2a18.709,18.709,0,0,1-2.511,4.4c-1.62,2.056-3.809,2.014-4.1,2.687.386.324.6.2,1.161.1,1.3-.223.4.06,1.188.241.189-.319,1.742-1.754,2.166-1.381.079.07.425.012-.086.662l-1.634,1.659c-.994,1.011-1.276,1.859-2.473,1.182-4.367-2.47-6.322-.064-10.256.605-2.473.421-3.052-1.416-7.378.118-.982.348-2.492.819-2.665,1.782,1.227-.24,5.507-2.756,6.36-.871-.857,1.533-4.888,1.556-6.128,2.4s-2.142,2.128-3.276,3.057a1.988,1.988,0,0,1-1.633.64c-.572-1.13-.284-1.581-.03-2.895.949-4.909.813-10.332,2.493-15.075a4.352,4.352,0,0,1,2.318-2.945c.736-.262.561-.081,1.121-.663a2.017,2.017,0,0,1,.7.245l1.235-.86c.758-.434.51-.48.9-1.224a5.218,5.218,0,0,1,2.037-2.087c.19.842-.682,2.65-1.054,3.2-.357.524-.809.634-.683,1.244s.5,1.254.087,1.8c-.715-.171-.94-2-2.056-1.744-.188.453.634,1.184.836,1.542a6.373,6.373,0,0,1,.4.884l.149.746c-.069.44-.353.337-.7.169-.385-.189-.314-.252-.762-.214-.092.857,1.193.992,1.8,1.149a51.279,51.279,0,0,1,6.778,2.481c3.627,1.477,4.994,1.889,8.826,1.7.447-.022,1.054.012,1.332-.341-.438-.363-1.256-.218-1.8-.218-5.755,0-3.383-1.438-4.807-2-.327-.128-.193.018-.53-.244.2-.736,1.114-.8,1.348-1.405l-.344-.121a.911.911,0,0,0-.386.067c-.268.072-.562.184-.8.275-.492.187-.974.471-1.378.61a5.8,5.8,0,0,1-3.531-.363c.254-.871,3.637-1.791,4.339-1.878a9.385,9.385,0,0,1,1.3-.014c.673-.011.531-.361,1.023-.581.327-.146.257-.059.574-.133a2.171,2.171,0,0,0,.584-.228,7.033,7.033,0,0,1,1.283-.358c1.274-.373,2.168-2.029,3.892-2.326,1.15-.2,5.04-.261,5.644-.631.107-1.341-1.009-1.217-1.51-.3-2.14.24-3.329-.765-5.151.628a3.147,3.147,0,0,1-2.025,1c-1.088.089-1.72.073-2.315.706.249.964.448.711-1.465,1.045a14.7,14.7,0,0,0-6.541,2.472c-.677.52-1.269.208-2.174-.023-2.516-.642-.428-5.027.035-6.567.559-1.858,1.079-2.761,2.371-3.6,2.574-1.67,6.822-.976,8.861,1.241a6.323,6.323,0,0,1,1.177,1.758c.183.786-.3,1.858-.115,2.636,1.176.01.365-1.575,1.707-2.915.319-.318.612-.429.506-.887-1.395-.192-1.037.736-3.076-1.146a6.159,6.159,0,0,0-2.7-1.862c-4.481-1.457-5.229.833-7.172,1.109Zm.015-1.041c.69-.369,1.624-2.309.586-2.678-.457.474-.255.788-.567,1.952-.16.6-.1.546-.018.726ZM268.28,183.527c.548-.524.528-2.726.577-3.592.266-4.708-3.1-11.88-2.742-18.245l.137-1.479c-.057-1.523-4.452,2.675-4.875,3.109-1.31,1.34-2.521,2.081-2.244,4.081.274,1.973,1.8,4.365,2.686,5.763,1.575,2.488,3.632,4.935,5.176,7.477a15,15,0,0,1,1.284,2.885Zm-.967-24.405c-.587.053-.606.786-.51,1.423l1.632,9.973c.262,1.6-.144,1.261.473,3.057.166.484.075.486.425.6.544-.7-.243-2.37.986-3.437,1.291-1.12,3.436-1.6,1.975-2.547A7.43,7.43,0,0,1,269.8,166c-1.959-2.287-2.052-4.107-2.484-6.878Zm15.074.312a3.562,3.562,0,0,0,.513-.956c.195-.463.249-.97-.317-.679-.515.265-1.461,1.456-.2,1.635Zm-5.088,6.223c-.936-.178-1.279.11-1.769-.586a10.615,10.615,0,0,1-.87-1.578c.352.023,1.7.246,2.111.337.839.186,1.052.492,1.056,1.417a8.226,8.226,0,0,1,.779-.634c.479-.359.609-.4.813-.907-.7-.28-1.134,0-1.1-1.235.55.092.58.252.829.573,2.2.123.4-4.158,3.2-5.46.4-.186,1.4-.316,1.63-.475a12.806,12.806,0,0,0,1.4-5.165c-.24-2.3-4.086-5.154-7.791-1.116l-2.086,2.368c-2.8,3.016-3.617.721-6.7,4.076-.318.346-.818.75-.9,1.284-.282,1.769.925,4.937,2.028,6.5a11.594,11.594,0,0,0,.93,1.178c1.109,1.192,2.47,2.411,4.425,1.857,1.68-.476,1.332-1.8,2.013-2.434Zm-13.069-5.322a5.172,5.172,0,0,0,1.681-1.156c.278-.24.534-.52.789-.728a43.445,43.445,0,0,1,4.073-3.429A7.9,7.9,0,0,1,272.691,154l.874-.141c.319-.063-.119.075.192-.046a.8.8,0,0,0,.084-.038l.763-.9c1.88-2.066,4.248-4.6,7.259-4.761a3.785,3.785,0,0,1,3.882,2.161c1.028,2.361.159,4.977-1.087,7.042-.421.7-.87,1.078-1.241,1.735.619-.274,1.064-.6,1.673-.854a5.392,5.392,0,0,1,4.287.164c.326.154.546.291.843.454.432.237.448.394.861.5l-1.249-2.121c-.413-.727-.829-1.529-1.285-2.222-.383-.582-.358-.451-.384-1.4-.042-1.555.217-3.455-.261-4.992a3.352,3.352,0,0,0-1.663-1.843,8.151,8.151,0,0,0-2.3-1.208,7.517,7.517,0,0,0-5.9.581,15.5,15.5,0,0,0-4.07,2.957,86.679,86.679,0,0,0-7.457,8.36l-1.621,1.893c-.314.313-.726.529-.662,1Zm11.887,29.244c-.1.879-2.2,4.464-2.687,5.818-.347.96-.908,2.794.223,3.186,1.492.517,1.384-1.378,2.354-1.819-.038.92-.584,1.867.252,2.257,1.515.705,2.731-1.6,3.205-2.62.317-.685.515-1.586,1.192-1.782.209.824-.639,1.837-.981,2.455-.287.517-.821,2.424.549,1.962,1.083-.365,2.648-2.636,3.29-3.712-.326.1-.424.445-.693.8-.7.913-1.362,2.044-2.726,2.143-.161-1.849,3.178-4.743,2.382-6.387-1.206.6-3.514,4.635-4.977,5.952-.24.216-.725.709-1.044.381-.824-1.761,4-6.147,3.647-7.966-.851.048-1.381,1.077-1.769,1.746-.457.789-.865,1.482-1.275,2.236s-2.317,4.19-3.392,3.516c-1.119-1.127,3.086-7.5,3.092-8.714a3.875,3.875,0,0,0-2.18.5,10.008,10.008,0,0,0-.852.548c-.679.411-4.559,3.536-4.737,1.783-.058-.575.614-1.256.956-1.584.185-.178.2-.155.38-.319.163-.148.217-.223.358-.342,5.1-4.344,5.547-2.759,8.693-4.549a26.121,26.121,0,0,1,9.127-2.576c2.039-.143,3.486-.236,4.653,1.034a8.343,8.343,0,0,1,1.867,4c.32,1.548.09,3.884-.861,4.826-1.244.212-1.771-.713-2.128-1.609a5.236,5.236,0,0,0-1.386-2.459c-2.815,1.11-4.357,2.88-5.942,5.163-.219.316-.559.634-.563,1.01.935-1.425,3.928-4.451,5.581-4.681,1.435-.2,1.821,1.818,2.459,2.685.95,1.291,2.326,1.6,3.339.2,1.718-2.378-.84-6.734-.127-8.908.427-1.3,1.684-1.825,2.481-2.676,1.168-1.246.949-2.174,1.076-4.179.166-2.634,2.032-5.143,3.02-7.416.758-1.743.308-2.148-1.008-3.364-.89-.822-1.876-1.6-2.891-2.381-.981-.751-1.859-1.48-2.915-2.235-1.682-1.2-1.3-1.124-2-3.271-.414-1.28-.817-2.636-1.332-3.824-.456-1.05-1.193-2.986-2.318-2.895-.121,2.424,2.254,5.468,2.654,7.714-.338-.143-.295-.175-.507-.547-.168-.293-.265-.474-.424-.748l-1.647-2.808c-.477-.842-.534-.481-.54-1.642-.008-1.42.219-8.025-1.877-6.473-.549-.848-2.7-1.861-3.83-2.151a8.4,8.4,0,0,0-5.107.532c-2.6,1.02-5.28,3.643-6.807,5.262l-2.788,3.186c-1.774,2.251-4.788,6.316-6.737,8.374-.3.318-1.48,1.324-1.509,1.374-.226-1.515,3.237-7.139,2.227-8.554-1.549.62-1.962,8.326-3.842,9.763-.359-.1-.383-.236-.605-.5-2.293-2.77-5.749-.137-6.949-.667-1.568-1.4.1-5.125.816-6.591,2.494-5.122,7.767-10.652,12.487-13.864,5.538-3.769,12.814-6.625,19.169-1.593a15.377,15.377,0,0,1,3.5,4.105c.228.387.161.465.677.61-.485-2.258-3.755-5.643-5.82-6.828-7.1-4.076-15.652.8-21.06,5.438-4.36,3.742-9.014,8.979-10.906,14.4-.679,1.944-1.174,5.843,1.661,5.52,1.1-.125,2.165-.877,3.408-.8a3.391,3.391,0,0,1,2.565,1.655c1,1.5.591,3.487,2.382,6.05,2.367,3.387,5,6.063,6.72,10.032,1.754,4.041.62,3.317.31,6.759-.236,2.618,1.226,1.94,1.278,2.906.071,1.317.174,2.058,2.312,1.165C272.109,191.995,275.152,189.794,276.117,189.579Z" transform="translate(873.772 -98.881)" fill="#07090a" fill-rule="evenodd"/>
    <path id="Path_35" data-name="Path 35" d="M400.234,227.191c.225,1,2.025.522,2.888,1.874.322.5.186.679.9.745.431-.807.074-1.209-1.1-1.949C402.388,227.527,400.954,226.823,400.234,227.191Z" transform="translate(750.095 -172.065)" fill="#07090a" fill-rule="evenodd"/>
    <path id="Path_36" data-name="Path 36" d="M396.752,240.254c-1.407.174-2.1-1.183-2.893-1.4a3.118,3.118,0,0,0,2,2.024c.418.132,1.219.393,1.474-.049l.217-1.223c-.055-.25-.085-.186-.173-.284C396.9,239.57,396.98,239.851,396.752,240.254Z" transform="translate(755.328 -181.726)" fill="#07090a" fill-rule="evenodd"/>
    <path id="Path_37" data-name="Path 37" d="M419.4,320.422a1.478,1.478,0,0,0,1.774-.754,2.969,2.969,0,0,0-.934-.549c-.046-.023-.486-.224-.5-.226C418.687,318.65,419.053,319.921,419.4,320.422Z" transform="translate(734.654 -247.396)" fill="#07090a" fill-rule="evenodd"/>
    <path id="Path_40" data-name="Path 40" d="M439.147,302.735c.764.811.116.276.509.725.416.474.815.267,1.107-.1l.615.334A1.457,1.457,0,0,0,439.147,302.735Z" transform="translate(718.154 -233.952)" fill="#07090a" fill-rule="evenodd"/>
    <path id="Path_38" data-name="Path 38" d="M418.993,298.249l.549.128.085.682c1.058.442.358-.108,1.386.063A1.287,1.287,0,0,0,418.993,298.249Z" transform="translate(734.697 -230.29)" fill="#07090a" fill-rule="evenodd"/>
    <path id="Path_39" data-name="Path 39" d="M424.712,312.423c.314.311.658.172,1.266.248l.41.669C427,312.405,424.953,312.107,424.712,312.423Z" transform="translate(730.003 -242.011)" fill="#07090a" fill-rule="evenodd"/>
    <g id="Ellipse_4" data-name="Ellipse 4" transform="translate(1116 37)" fill="none" stroke="#244d22" stroke-width="1.2">
      <ellipse cx="33.5" cy="33" rx="33.5" ry="33" stroke="none"/>
      <ellipse cx="33.5" cy="33" rx="32.9" ry="32.4" fill="none"/>
    </g>
  </g>
</svg>
