  <svg class="mb-3 mt-4  " xmlns="http://www.w3.org/2000/svg" width="75.78" height="72.137" viewBox="0 0 75.78 72.137">
                  <g id="fitness-svgrepo-com_1_" data-name="fitness-svgrepo-com (1)" transform="translate(0 -12.305)">
                    <g id="Group_84" data-name="Group 84" transform="translate(18.027 59.306)">
                      <g id="Group_83" data-name="Group 83">
                        <path id="Path_127" data-name="Path 127" d="M128.306,330.441a1.2,1.2,0,0,0-1.652-.4,10.02,10.02,0,0,0-4.859,8.627V348.2a1.2,1.2,0,1,0,2.4,0v-9.538a7.633,7.633,0,0,1,3.7-6.571A1.2,1.2,0,0,0,128.306,330.441Z" transform="translate(-121.795 -329.862)" fill="#3b721b"/>
                      </g>
                    </g>
                    <g id="Group_86" data-name="Group 86" transform="translate(18.027 80.451)">
                      <g id="Group_85" data-name="Group 85">
                        <path id="Path_128" data-name="Path 128" d="M147.272,474.313H124.2v-.384a1.2,1.2,0,1,0-2.4,0v1.587a1.2,1.2,0,0,0,1.2,1.2h24.275a1.2,1.2,0,1,0,0-2.4Z" transform="translate(-121.795 -472.726)" fill="#3b721b"/>
                      </g>
                    </g>
                    <g id="Group_88" data-name="Group 88" transform="translate(28.924 63.679)">
                      <g id="Group_87" data-name="Group 87">
                        <path id="Path_129" data-name="Path 129" d="M210.223,359.492a1.2,1.2,0,0,0-1.561.673,5.874,5.874,0,0,1-10.919,0,1.2,1.2,0,0,0-2.235.888,8.279,8.279,0,0,0,15.389,0A1.2,1.2,0,0,0,210.223,359.492Z" transform="translate(-195.423 -359.406)" fill="#3b721b"/>
                      </g>
                    </g>
                    <g id="Group_90" data-name="Group 90" transform="translate(0 46.682)">
                      <g id="Group_89" data-name="Group 89">
                        <path id="Path_130" data-name="Path 130" d="M18.827,251.566a1.2,1.2,0,0,0-1.564-.667,10.715,10.715,0,0,1-2.835.709v-4.566a10.771,10.771,0,0,1,1.889.381,1.2,1.2,0,0,0,.686-2.3,13.226,13.226,0,1,0-1.113,25.636,1.2,1.2,0,1,0-.482-2.356c-.323.066-.65.115-.98.152v-4.566a10.771,10.771,0,0,1,1.862.373,1.2,1.2,0,1,0,.68-2.307,13.186,13.186,0,0,0-2.542-.482v-7.543a13.114,13.114,0,0,0,3.732-.9A1.2,1.2,0,0,0,18.827,251.566Zm-6.8,16.984A10.767,10.767,0,0,1,6.5,266.265a10.693,10.693,0,0,1,5.523-2.279Zm0-6.981a13.08,13.08,0,0,0-7.238,2.989,10.789,10.789,0,0,1,0-13.52,13.09,13.09,0,0,0,7.239,2.988Zm0-9.96A10.7,10.7,0,0,1,6.5,249.33a10.767,10.767,0,0,1,5.524-2.286Z" transform="translate(0 -244.571)" fill="#3b721b"/>
                      </g>
                    </g>
                    <g id="Group_92" data-name="Group 92" transform="translate(41.66 70.326)">
                      <g id="Group_91" data-name="Group 91">
                        <path id="Path_131" data-name="Path 131" d="M314.389,410.177H310.94v-4.653a1.2,1.2,0,0,0-1.2-1.2H303.2a1.2,1.2,0,0,0-1.2,1.2v4.653h-6.937v-4.653a1.2,1.2,0,0,0-1.2-1.2h-6.535a1.2,1.2,0,0,0-1.2,1.2v4.653h-3.449a1.2,1.2,0,1,0,0,2.4h3.449v4.653a1.2,1.2,0,0,0,1.2,1.2h6.535a1.2,1.2,0,0,0,1.2-1.2v-4.653H302v4.653a1.2,1.2,0,0,0,1.2,1.2h6.535a1.2,1.2,0,0,0,1.2-1.2v-4.653h3.449a1.2,1.2,0,1,0,0-2.4Zm-21.731,5.855h-4.13v-9.306h4.13Zm15.877,0h-4.13v-9.306h4.13Z" transform="translate(-281.472 -404.321)" fill="#3b721b"/>
                      </g>
                    </g>
                    <g id="Group_94" data-name="Group 94" transform="translate(28.364 42.314)">
                      <g id="Group_93" data-name="Group 93">
                        <path id="Path_132" data-name="Path 132" d="M192.84,215.061a1.2,1.2,0,0,0-1.2,1.2v1.923a1.2,1.2,0,0,0,2.4,0v-1.923A1.2,1.2,0,0,0,192.84,215.061Z" transform="translate(-191.638 -215.061)" fill="#3b721b"/>
                      </g>
                    </g>
                    <g id="Group_96" data-name="Group 96" transform="translate(39.888 38.212)">
                      <g id="Group_95" data-name="Group 95">
                        <path id="Path_133" data-name="Path 133" d="M277.053,188.833a5.1,5.1,0,0,0-7.2,0,1.2,1.2,0,0,0,1.7,1.7,2.689,2.689,0,0,1,3.8,0,1.2,1.2,0,1,0,1.7-1.7Z" transform="translate(-269.502 -187.344)" fill="#3b721b"/>
                      </g>
                    </g>
                    <g id="Group_98" data-name="Group 98" transform="translate(25.615 38.212)">
                      <g id="Group_97" data-name="Group 97">
                        <path id="Path_134" data-name="Path 134" d="M180.615,188.834a5.1,5.1,0,0,0-7.2,0,1.2,1.2,0,0,0,1.7,1.7,2.689,2.689,0,0,1,3.8,0,1.2,1.2,0,1,0,1.7-1.7Z" transform="translate(-173.064 -187.346)" fill="#3b721b"/>
                      </g>
                    </g>
                    <g id="Group_100" data-name="Group 100" transform="translate(42.637 42.314)">
                      <g id="Group_99" data-name="Group 99">
                        <path id="Path_135" data-name="Path 135" d="M289.278,215.061a1.2,1.2,0,0,0-1.2,1.2v1.923a1.2,1.2,0,0,0,2.4,0v-1.923A1.2,1.2,0,0,0,289.278,215.061Z" transform="translate(-288.076 -215.061)" fill="#3b721b"/>
                      </g>
                    </g>
                    <g id="Group_102" data-name="Group 102" transform="translate(30.861 51.476)">
                      <g id="Group_101" data-name="Group 101">
                        <path id="Path_136" data-name="Path 136" d="M219.842,277.31a1.2,1.2,0,0,0-1.7,0,5.365,5.365,0,0,1-7.578,0,1.2,1.2,0,0,0-1.7,1.7,7.772,7.772,0,0,0,10.979,0A1.2,1.2,0,0,0,219.842,277.31Z" transform="translate(-208.511 -276.958)" fill="#3b721b"/>
                      </g>
                    </g>
                    <g id="Group_104" data-name="Group 104" transform="translate(34.243 43.139)">
                      <g id="Group_103" data-name="Group 103">
                        <path id="Path_137" data-name="Path 137" d="M235.079,224.32h-.055v-2.485a1.2,1.2,0,0,0-2.4,0v2.485h-.055a1.2,1.2,0,1,0,0,2.4h2.514a1.2,1.2,0,1,0,0-2.4Z" transform="translate(-231.363 -220.633)" fill="#3b721b"/>
                      </g>
                    </g>
                    <g id="Group_106" data-name="Group 106" transform="translate(15.031 12.305)">
                      <g id="Group_105" data-name="Group 105">
                        <path id="Path_138" data-name="Path 138" d="M156.393,55.622a1.2,1.2,0,0,0-1.15-.851h-1.59a4.548,4.548,0,0,1-4.543-4.543V25.274a12.984,12.984,0,0,0-12.968-12.969,9.475,9.475,0,0,0-9,6.412,17.085,17.085,0,0,0-18.7,8.089h-.845a1.2,1.2,0,0,0-1.177.957L105,34.55a1.2,1.2,0,0,0,1.011,1.434l-.054.556a4.944,4.944,0,0,0-.913,9.641,13.392,13.392,0,0,0,5.482,11.4l6.581,4.78a10.381,10.381,0,0,0,12.235,0l6.581-4.781a13.393,13.393,0,0,0,5.482-11.4,4.944,4.944,0,0,0-.913-9.64l-.054-.557a1.2,1.2,0,0,0,1.011-1.434l-1.413-6.786a1.2,1.2,0,0,0-1.177-.957h-.844a17.122,17.122,0,0,0-8.579-7.374,7.081,7.081,0,0,1,6.7-4.723A10.576,10.576,0,0,1,146.7,25.274V50.228a6.959,6.959,0,0,0,4.348,6.443,15.064,15.064,0,0,1-11.243-.006,1.2,1.2,0,0,0-.968,2.2,15.642,15.642,0,0,0,6.354,1.319,20.991,20.991,0,0,0,10.719-3.215A1.2,1.2,0,0,0,156.393,55.622ZM105.269,43.676a2.538,2.538,0,0,1,.448-4.637Zm37.225-2.222a2.532,2.532,0,0,1-1.31,2.222l-.448-4.636A2.541,2.541,0,0,1,142.494,41.453ZM122.024,20.72v6.086H111.291A14.61,14.61,0,0,1,122.024,20.72Zm16.943,25.018a10.973,10.973,0,0,1-4.455,9.895l-6.581,4.781a7.982,7.982,0,0,1-9.408,0l-6.581-4.78a10.974,10.974,0,0,1-4.456-9.895L108.427,36h29.6Zm-1.084-16.527.912,4.382H107.658l.912-4.382Zm-4.8-4.732a14.692,14.692,0,0,1,2.071,2.327H124.429V20.721A14.624,14.624,0,0,1,133.085,24.479Z" transform="translate(-101.554 -12.305)" fill="#3b721b"/>
                      </g>
                    </g>
                    <g id="Group_108" data-name="Group 108" transform="translate(48.693 59.306)">
                      <g id="Group_107" data-name="Group 107" transform="translate(0 0)">
                        <path id="Path_139" data-name="Path 139" d="M330.819,330.038a1.2,1.2,0,0,0-1.248,2.056,7.633,7.633,0,0,1,3.7,6.571,1.2,1.2,0,1,0,2.4,0A10.02,10.02,0,0,0,330.819,330.038Z" transform="translate(-328.992 -329.863)" fill="#3b721b"/>
                      </g>
                    </g>
                  </g>
                </svg>
