  <svg class="mt-4 mb-3" xmlns="http://www.w3.org/2000/svg" width="93.597" height="70.923" viewBox="0 0 93.597 70.923">
                  <g id="library-svgrepo-com" transform="translate(7.464 0)">
                    <path id="Path_140" data-name="Path 140" d="M136.708,327.418a2.172,2.172,0,0,1-2.173,2.173H82.194a2.174,2.174,0,0,1-2.172-2.173v-9.056a2.174,2.174,0,0,1,2.172-2.173h52.341a2.173,2.173,0,0,1,2.173,2.173v9.056Z" transform="translate(-50.576 -271.706)" fill="#ea0c5c"/>
                    <path id="Path_141" data-name="Path 141" d="M147.8,316.2a2.172,2.172,0,0,1,2.173,2.173v9.056A2.172,2.172,0,0,1,147.8,329.6H95.461" transform="translate(-63.843 -271.713)" fill="#bc0852"/>
                    <path id="Path_142" data-name="Path 142" d="M80.022,318.369a2.174,2.174,0,0,1,2.172-2.173h52.341a2.172,2.172,0,0,1,2.173,2.173" transform="translate(-50.576 -271.712)" fill="#ff7171"/>
                    <g id="Group_109" data-name="Group 109" transform="translate(73.669 46.163)">
                      <path id="Path_143" data-name="Path 143" d="M395.151,337.777a.4.4,0,0,1-.4.4h0a.4.4,0,0,1-.4-.4v-9.25a.4.4,0,0,1,.4-.4h0a.4.4,0,0,1,.4.4Z" transform="translate(-394.359 -328.13)" fill="#f2db06"/>
                      <path id="Path_144" data-name="Path 144" d="M413,337.777a.4.4,0,0,1-.4.4h0a.4.4,0,0,1-.4-.4v-9.25a.4.4,0,0,1,.4-.4h0a.4.4,0,0,1,.4.4Z" transform="translate(-409.697 -328.13)" fill="#f2db06"/>
                      <path id="Path_145" data-name="Path 145" d="M430.856,337.777a.4.4,0,0,1-.4.4h0a.4.4,0,0,1-.395-.4v-9.25a.4.4,0,0,1,.395-.4h0a.4.4,0,0,1,.4.4Z" transform="translate(-425.042 -328.13)" fill="#f2db06"/>
                    </g>
                    <path id="Path_146" data-name="Path 146" d="M77.853,233.5a2.174,2.174,0,0,1-2.173,2.173H23.339a2.174,2.174,0,0,1-2.173-2.173v-9.056a2.172,2.172,0,0,1,2.173-2.173H75.68a2.172,2.172,0,0,1,2.173,2.173V233.5Z" transform="translate(0 -191.002)" fill="#038462"/>
                    <path id="Path_147" data-name="Path 147" d="M88.954,222.272a2.172,2.172,0,0,1,2.173,2.173V233.5a2.174,2.174,0,0,1-2.173,2.173H36.613" transform="translate(-13.274 -191.002)" fill="#047769"/>
                    <path id="Path_148" data-name="Path 148" d="M21.174,224.445a2.172,2.172,0,0,1,2.173-2.173h52.34a2.172,2.172,0,0,1,2.173,2.173" transform="translate(-0.007 -191.002)" fill="#2eaf8d"/>
                    <g id="Group_110" data-name="Group 110" transform="translate(65.391 32.949)">
                      <path id="Path_149" data-name="Path 149" d="M336.308,243.853a.4.4,0,0,1-.4.4h0a.4.4,0,0,1-.393-.4V234.6a.4.4,0,0,1,.393-.4h0a.4.4,0,0,1,.4.4Z" transform="translate(-335.518 -234.206)" fill="#f2db06"/>
                      <path id="Path_150" data-name="Path 150" d="M354.144,243.853a.4.4,0,0,1-.4.4h0a.4.4,0,0,1-.394-.4V234.6a.4.4,0,0,1,.394-.4h0a.4.4,0,0,1,.4.4Z" transform="translate(-350.843 -234.206)" fill="#f2db06"/>
                      <path id="Path_151" data-name="Path 151" d="M371.993,243.853a.4.4,0,0,1-.4.4h0a.4.4,0,0,1-.4-.4V234.6a.4.4,0,0,1,.4-.4h0a.4.4,0,0,1,.4.4Z" transform="translate(-366.181 -234.206)" fill="#f2db06"/>
                    </g>
                    <path id="Path_152" data-name="Path 152" d="M77.853,420.09a2.174,2.174,0,0,1-2.173,2.173H23.339a2.174,2.174,0,0,1-2.173-2.173v-9.056a2.173,2.173,0,0,1,2.173-2.173H75.68a2.173,2.173,0,0,1,2.173,2.173v9.056Z" transform="translate(0 -351.34)" fill="#115989"/>
                    <path id="Path_153" data-name="Path 153" d="M88.954,408.861a2.173,2.173,0,0,1,2.173,2.173v9.056a2.174,2.174,0,0,1-2.173,2.173H36.613" transform="translate(-13.274 -351.34)" fill="#003b5b"/>
                    <path id="Path_154" data-name="Path 154" d="M21.174,411.034a2.173,2.173,0,0,1,2.173-2.173h52.34a2.173,2.173,0,0,1,2.173,2.173" transform="translate(-0.007 -351.34)" fill="#158acc"/>
                    <g id="Group_111" data-name="Group 111" transform="translate(65.391 59.201)">
                      <path id="Path_155" data-name="Path 155" d="M336.308,430.449a.4.4,0,0,1-.4.4h0a.4.4,0,0,1-.393-.4V421.2a.4.4,0,0,1,.393-.4h0a.4.4,0,0,1,.4.4Z" transform="translate(-335.518 -420.802)" fill="#f2db06"/>
                      <path id="Path_156" data-name="Path 156" d="M354.144,430.449a.4.4,0,0,1-.4.4h0a.4.4,0,0,1-.394-.4V421.2a.4.4,0,0,1,.394-.4h0a.4.4,0,0,1,.4.4Z" transform="translate(-350.843 -420.802)" fill="#f2db06"/>
                      <path id="Path_157" data-name="Path 157" d="M371.993,430.449a.4.4,0,0,1-.4.4h0a.4.4,0,0,1-.4-.4V421.2a.4.4,0,0,1,.4-.4h0a.4.4,0,0,1,.4.4Z" transform="translate(-366.181 -420.802)" fill="#f2db06"/>
                    </g>
                    <circle id="Ellipse_10" data-name="Ellipse 10" cx="13.082" cy="13.082" r="13.082" transform="translate(-7.464 38.103)" fill="#fa0"/>
                    <path id="Path_158" data-name="Path 158" d="M252.062,38.882a13.081,13.081,0,1,1,0,26.162" transform="translate(-198.412 -33.412)" fill="#ff8500"/>
                    <path id="Path_159" data-name="Path 159" d="M212.745,10.766a1.056,1.056,0,0,1-1.056-1.056A4.413,4.413,0,0,0,207.281,5.3a1.057,1.057,0,0,1,0-2.113A6.527,6.527,0,0,1,213.8,9.709,1.054,1.054,0,0,1,212.745,10.766Z" transform="translate(-159.024 -2.742)" fill="#54391e"/>
                    <path id="Path_160" data-name="Path 160" d="M211.737,17.275a1.031,1.031,0,0,0-.328.067,1.061,1.061,0,0,0,.328.067,4.413,4.413,0,0,1,4.407,4.406A1.056,1.056,0,0,0,217.2,22.87a1.043,1.043,0,0,0,.891-.52A6.531,6.531,0,0,0,211.737,17.275Z" transform="translate(-163.478 -14.845)" fill="#382413"/>
                    <path id="Path_161" data-name="Path 161" d="M252.862.548c-1.8-1.164-4.793-.439-7.049,1.815s-1.883,4.159-.523,5.757Z" transform="translate(-191.652 0)" fill="#7ec441"/>
                    <path id="Path_162" data-name="Path 162" d="M259.438,3.79c1.163,1.8.439,4.793-1.816,7.049s-4.158,1.882-5.757.523Z" transform="translate(-198.243 -3.257)" fill="#559e1b"/>
                    <g id="Group_112" data-name="Group 112" transform="translate(42.535 7.343)">
                      <path id="Path_163" data-name="Path 163" d="M181.968,52.62c1.068,1.068-1.273,2.52-3.614,4.859s-3.791,4.68-4.859,3.613-.033-3.827,2.3-6.166S180.9,51.554,181.968,52.62Z" transform="translate(-173.072 -52.199)" fill="#f4c951"/>
                      <circle id="Ellipse_11" data-name="Ellipse 11" cx="0.573" cy="0.573" r="0.573" transform="translate(0 10.369)" fill="#f4c951"/>
                      <circle id="Ellipse_12" data-name="Ellipse 12" cx="0.176" cy="0.176" r="0.176" transform="translate(0.352 13.277)" fill="#f4c951"/>
                    </g>
                  </g>
                </svg>